<?xml version="1.0" encoding="utf-8"?>
<!-- Generator: Adobe Illustrator 17.0.0, SVG Export Plug-In . SVG Version: 6.00 Build 0)  -->
<!DOCTYPE svg PUBLIC "-//W3C//DTD SVG 1.1//EN" "http://www.w3.org/Graphics/SVG/1.1/DTD/svg11.dtd">
<svg version="1.1" id="Layer_1" xmlns="http://www.w3.org/2000/svg" xmlns:xlink="http://www.w3.org/1999/xlink" x="0px" y="0px"
	 width="460px" height="289px" viewBox="0 0 460 289" enable-background="new 0 0 460 289" xml:space="preserve">
<path fill="#293692" stroke="#000000" stroke-miterlimit="10" d="M127.31,280.93c-1.27,0.05-2.54,0.07-3.81,0.07
	c-1.82,0-3.63-0.05-5.42-0.15c-9.27-0.49-18.24-2.24-26.81-5.11C43.16,259.61,8,208.3,8,147.5S43.16,35.39,91.27,19.26
	c8.57-2.87,17.54-4.62,26.81-5.11c1.79-0.1,3.6-0.15,5.42-0.15c1.27,0,2.54,0.02,3.81,0.07C84.38,26.39,52,81.44,52,147.5
	S84.38,268.61,127.31,280.93z"/>
<path fill="#171244" stroke="#000000" stroke-miterlimit="10" d="M135.9,280.24c2.37,0.84,4.78,1.52,7.23,2.04
	c-1.83,0.3-3.67,0.55-5.52,0.74c-1.41,0.15-2.83,0.26-4.26,0.33c-1.69,0.1-3.39,0.15-5.1,0.15c-12.97,0-25.42-2.74-36.98-7.76
	C48.29,257.05,17.5,206.69,17.5,147.5S48.29,37.95,91.27,19.26c11.56-5.02,24.01-7.76,36.98-7.76c1.71,0,3.41,0.05,5.1,0.15
	c1.43,0.07,2.85,0.18,4.26,0.33c1.85,0.19,3.69,0.44,5.52,0.74c-2.45,0.52-4.86,1.2-7.23,2.04c-2.83-0.35-5.7-0.58-8.59-0.69
	C84.38,26.39,52,81.44,52,147.5s32.38,121.11,75.31,133.43C130.2,280.82,133.07,280.59,135.9,280.24z"/>
<path fill="#463192" stroke="#000000" stroke-miterlimit="10" d="M143.13,282.28c1.28,0.28,2.57,0.51,3.87,0.69
	c-1.69,0.2-3.39,0.34-5.1,0.43c-0.01,0-0.01,0-0.01,0c-1.29,0.07-2.59,0.1-3.89,0.1c-1.56,0-3.11-0.05-4.65-0.15
	c-5.2-0.31-10.3-1.16-15.27-2.5C71.84,268.4,37,213.43,37,147.5S71.84,26.6,118.08,14.15c4.97-1.34,10.07-2.19,15.27-2.5
	c1.54-0.1,3.09-0.15,4.65-0.15c1.3,0,2.6,0.03,3.89,0.1c0,0,0,0,0.01,0c1.71,0.09,3.41,0.23,5.1,0.43c-1.3,0.18-2.59,0.41-3.87,0.69
	c-2.45,0.52-4.86,1.2-7.23,2.04c-2.83-0.35-5.7-0.58-8.59-0.69C84.38,26.39,52,81.44,52,147.5s32.38,121.11,75.31,133.43
	c2.89-0.11,5.76-0.34,8.59-0.69C138.27,281.08,140.68,281.76,143.13,282.28z"/>
<path fill="#3E55A5" stroke="#000000" stroke-miterlimit="10" d="M135.9,280.24c-2.83,0.35-5.7,0.58-8.59,0.69
	C84.38,268.61,52,213.56,52,147.5S84.38,26.39,127.31,14.07c2.89,0.11,5.76,0.34,8.59,0.69C97.62,28.32,69,82.6,69,147.5
	S97.62,266.68,135.9,280.24z"/>
<path fill="#FFFFFF" stroke="#000000" stroke-miterlimit="10" d="M150.26,11.68c-1.09,0.08-2.18,0.2-3.26,0.35
	c-1.3,0.18-2.59,0.41-3.87,0.69c-2.45,0.52-4.86,1.2-7.23,2.04c-2.83-0.35-5.7-0.58-8.59-0.69c3.37-0.96,6.81-1.67,10.3-2.09
	c1.42-0.17,2.84-0.3,4.28-0.38c0,0,0,0,0.01,0c1.19-0.07,2.39-0.1,3.6-0.1C147.1,11.5,148.68,11.56,150.26,11.68z"/>
<path fill="#FFFFFF" stroke="#000000" stroke-miterlimit="10" d="M150.26,283.32c-1.58,0.12-3.16,0.18-4.76,0.18
	c-1.21,0-2.41-0.03-3.6-0.1c-0.01,0-0.01,0-0.01,0c-1.44-0.08-2.86-0.21-4.28-0.38c-3.49-0.42-6.93-1.13-10.3-2.09
	c2.89-0.11,5.76-0.34,8.59-0.69c2.37,0.84,4.78,1.52,7.23,2.04c1.28,0.28,2.57,0.51,3.87,0.69
	C148.08,283.12,149.17,283.24,150.26,283.32z"/>
<radialGradient id="SVGID_1_" cx="154.625" cy="137.5" r="113.639" gradientTransform="matrix(1 0 0 0.9724 0 10.2214)" gradientUnits="userSpaceOnUse">
	<stop  offset="0.803" style="stop-color:#FFFFFF"/>
	<stop  offset="0.9507" style="stop-color:#000000"/>
</radialGradient>
<path fill="url(#SVGID_1_)" stroke="#000000" stroke-width="11" stroke-miterlimit="10" d="M240.25,143.93
	c0,73.039-38.34,132.25-85.63,132.25c-1.46,0-2.91-0.058-4.36-0.175c-1.09-0.078-2.18-0.195-3.26-0.34
	c-1.3-0.175-2.59-0.399-3.87-0.671c-2.45-0.506-4.86-1.167-7.23-1.984C97.62,259.824,69,207.04,69,143.93S97.62,28.036,135.9,14.85
	c2.37-0.817,4.78-1.478,7.23-1.984c1.28-0.272,2.57-0.496,3.87-0.671c1.08-0.146,2.17-0.263,3.26-0.34
	c1.45-0.117,2.9-0.175,4.36-0.175C201.91,11.68,240.25,70.891,240.25,143.93z"/>
<polygon fill="#083F25" stroke="#4B52A3" stroke-miterlimit="10" points="87.31,217.658 200.624,204.401 200.624,147.394 
	353.597,98.342 367.761,42.661 452.747,6.865 325.269,28.077 302.606,81.107 158.131,134.137 "/>
<text transform="matrix(0.5404 0 0 1 89.9995 215.3486)" fill="#2C318C" stroke="#F8F7F8" stroke-miterlimit="10" font-family="'MyriadPro-Regular'" font-size="213.8263">Skill up</text>
<text transform="matrix(0.5374 0 0 1 87 215.3485)" fill="#33469D" stroke="#F8F7F8" stroke-miterlimit="10" font-family="'MyriadPro-Regular'" font-size="213.8263">Skill up</text>
</svg>
