<?xml version="1.0" encoding="utf-8"?>
<!-- Generator: Adobe Illustrator 17.0.0, SVG Export Plug-In . SVG Version: 6.00 Build 0)  -->
<!DOCTYPE svg PUBLIC "-//W3C//DTD SVG 1.1//EN" "http://www.w3.org/Graphics/SVG/1.1/DTD/svg11.dtd">
<svg version="1.1" id="Layer_1" xmlns="http://www.w3.org/2000/svg" xmlns:xlink="http://www.w3.org/1999/xlink" x="0px" y="0px"
	 width="131.833px" height="73.167px" viewBox="0 0 131.833 73.167" enable-background="new 0 0 131.833 73.167"
	 xml:space="preserve">
<path fill="#293692" stroke="#000000" stroke-miterlimit="10" d="M37.448,66.94c-0.363,0.011-0.726,0.015-1.089,0.015
	c-0.52,0-1.038-0.011-1.55-0.033c-2.651-0.107-5.215-0.491-7.666-1.12c-13.756-3.536-23.81-14.783-23.81-28.11
	s10.053-24.574,23.81-28.11c2.45-0.629,5.015-1.013,7.666-1.12c0.512-0.022,1.029-0.033,1.55-0.033c0.363,0,0.726,0.004,1.089,0.015
	c-12.275,2.701-21.534,14.767-21.534,29.248S25.173,64.24,37.448,66.94z"/>
<path fill="#171244" stroke="#000000" stroke-miterlimit="10" d="M39.904,66.789c0.678,0.184,1.367,0.333,2.067,0.447
	c-0.523,0.066-1.049,0.121-1.578,0.162c-0.403,0.033-0.809,0.057-1.218,0.072c-0.483,0.022-0.969,0.033-1.458,0.033
	c-3.709,0-7.268-0.601-10.574-1.701C14.854,61.706,6.05,50.667,6.05,37.692s8.804-24.013,21.093-28.11
	c3.305-1.1,6.865-1.701,10.574-1.701c0.489,0,0.975,0.011,1.458,0.033c0.409,0.015,0.815,0.039,1.218,0.072
	c0.529,0.042,1.055,0.096,1.578,0.162c-0.701,0.114-1.39,0.263-2.067,0.447c-0.809-0.077-1.63-0.127-2.456-0.151
	c-12.275,2.701-21.534,14.767-21.534,29.248S25.173,64.24,37.448,66.94C38.274,66.916,39.095,66.866,39.904,66.789z"/>
<path fill="#463192" stroke="#000000" stroke-miterlimit="10" d="M41.971,67.236c0.366,0.061,0.735,0.112,1.107,0.151
	c-0.483,0.044-0.969,0.075-1.458,0.094c-0.003,0-0.003,0-0.003,0c-0.369,0.015-0.741,0.022-1.112,0.022
	c-0.446,0-0.889-0.011-1.33-0.033c-1.487-0.068-2.945-0.254-4.366-0.548c-13.222-2.729-23.183-14.778-23.183-29.23
	s9.962-26.501,23.183-29.23c1.421-0.294,2.879-0.48,4.366-0.548c0.44-0.022,0.884-0.033,1.33-0.033c0.372,0,0.743,0.007,1.112,0.022
	c0,0,0,0,0.003,0c0.489,0.02,0.975,0.05,1.458,0.094c-0.372,0.039-0.741,0.09-1.107,0.151c-0.701,0.114-1.39,0.263-2.067,0.447
	c-0.809-0.077-1.63-0.127-2.456-0.151c-12.275,2.701-21.534,14.767-21.534,29.248S25.173,64.24,37.448,66.94
	c0.826-0.024,1.647-0.075,2.456-0.151C40.582,66.973,41.271,67.122,41.971,67.236z"/>
<path fill="#3E55A5" stroke="#000000" stroke-miterlimit="10" d="M39.904,66.789c-0.809,0.077-1.63,0.127-2.456,0.151
	C25.173,64.24,15.914,52.173,15.914,37.692s9.259-26.547,21.534-29.248c0.826,0.024,1.647,0.075,2.456,0.151
	c-10.946,2.972-19.129,14.87-19.129,29.096S28.959,63.817,39.904,66.789z"/>
<path fill="#FFFFFF" stroke="#000000" stroke-miterlimit="10" d="M44.01,7.921c-0.312,0.018-0.623,0.044-0.932,0.077
	c-0.372,0.039-0.741,0.09-1.107,0.151c-0.701,0.114-1.39,0.263-2.067,0.447c-0.809-0.077-1.63-0.127-2.456-0.151
	c0.964-0.21,1.947-0.366,2.945-0.458c0.406-0.037,0.812-0.066,1.224-0.083c0,0,0,0,0.003,0c0.34-0.015,0.683-0.022,1.029-0.022
	C43.107,7.881,43.558,7.895,44.01,7.921z"/>
<path fill="#FFFFFF" stroke="#000000" stroke-miterlimit="10" d="M44.01,67.464c-0.452,0.026-0.904,0.039-1.361,0.039
	c-0.346,0-0.689-0.007-1.029-0.022c-0.003,0-0.003,0-0.003,0c-0.412-0.018-0.818-0.046-1.224-0.083
	c-0.998-0.092-1.982-0.248-2.945-0.458c0.826-0.024,1.647-0.075,2.456-0.151c0.678,0.184,1.367,0.333,2.067,0.447
	c0.366,0.061,0.735,0.112,1.107,0.151C43.387,67.42,43.698,67.447,44.01,67.464z"/>
<radialGradient id="SVGID_1_" cx="145.6048" cy="137.5" r="113.639" gradientTransform="matrix(0.2621 0 0 0.2015 5.0552 10.7852)" gradientUnits="userSpaceOnUse">
	<stop  offset="0.803" style="stop-color:#FFFFFF"/>
	<stop  offset="0.9507" style="stop-color:#000000"/>
</radialGradient>
<path fill="url(#SVGID_1_)" stroke="#000000" stroke-width="11" stroke-miterlimit="10" d="M65.658,38.493
	c0,15.136-10.048,27.406-22.443,27.406c-0.383,0-0.763-0.012-1.143-0.036c-0.286-0.016-0.571-0.04-0.854-0.071
	c-0.341-0.036-0.679-0.083-1.014-0.139c-0.642-0.105-1.274-0.242-1.895-0.411c-10.033-2.733-17.534-13.671-17.534-26.749
	s7.501-24.016,17.534-26.749c0.621-0.169,1.253-0.306,1.895-0.411c0.335-0.056,0.674-0.103,1.014-0.139
	c0.283-0.03,0.569-0.054,0.854-0.071c0.38-0.024,0.76-0.036,1.143-0.036C55.609,11.087,65.658,23.358,65.658,38.493z"/>
<polygon fill="#083F25" stroke="#F8F7F8" stroke-miterlimit="10" points="33.304,53.363 60.807,50.248 60.807,36.853 97.935,25.327 
	101.373,12.244 122,3.833 91.06,8.817 85.559,21.278 50.493,33.738 "/>
<text transform="matrix(0.7049 0 0 1 26.7796 52.5649)" fill="#2C318C" stroke="#F8F7F8" stroke-miterlimit="10" font-family="'MyriadPro-Regular'" font-size="46.8705">Skill up</text>
<text transform="matrix(0.701 0 0 1 25.9222 52.5649)" fill="#33469D" stroke="#F8F7F8" stroke-miterlimit="10" font-family="'MyriadPro-Regular'" font-size="46.8705">Skill up</text>
</svg>
