<?xml version="1.0" encoding="utf-8"?>
<!-- Generator: Adobe Illustrator 17.0.0, SVG Export Plug-In . SVG Version: 6.00 Build 0)  -->
<!DOCTYPE svg PUBLIC "-//W3C//DTD SVG 1.1//EN" "http://www.w3.org/Graphics/SVG/1.1/DTD/svg11.dtd">
<svg version="1.1" id="Layer_1" xmlns="http://www.w3.org/2000/svg" xmlns:xlink="http://www.w3.org/1999/xlink" x="0px" y="0px"
	 width="303px" height="228.363px" viewBox="0 0 303 228.363" enable-background="new 0 0 303 228.363" xml:space="preserve">
<g>
	<polygon fill="#083F25" stroke="#F8F7F8" stroke-miterlimit="10" points="16.304,228.363 105.202,214 105.202,152.242 
		225.214,99.101 236.327,38.779 303,0 202.99,22.98 185.21,80.43 71.865,137.879 	"/>
	<polygon fill="#083F25" stroke="#F8F7F8" stroke-miterlimit="10" points="37.471,191.614 109.792,184.025 113.567,129.952 
		213.263,90.155 225.88,37.962 281.833,7.749 200.055,22.259 182.255,71.563 87.653,115.506 	"/>
</g>
<text transform="matrix(1 0 0 1 57 65)" font-family="'MyriadPro-Regular'" font-size="14">Middle of the journey</text>
<text transform="matrix(1 0 0 1 110 13)" font-family="'MyriadPro-Regular'" font-size="14">Goal archievements</text>
<text transform="matrix(1 0 0 1 6 142)"><tspan x="0" y="0" font-family="'MyriadPro-Regular'" font-size="14">Begining </tspan><tspan x="0" y="16.8" font-family="'MyriadPro-Regular'" font-size="14">of journy</tspan></text>
</svg>
